<?xml version="1.0" encoding="UTF-8" standalone="no"?>
<!-- Created with Inkscape (http://www.inkscape.org/) -->
<svg
   xmlns:svg="http://www.w3.org/2000/svg"
   xmlns="http://www.w3.org/2000/svg"
   version="1.0"
   width="177"
   height="38"
   id="svg2">
  <defs
     id="defs4" />
  <g
     transform="translate(-267.17715,-609.6909)"
     id="layer1">
    <g
       transform="matrix(0.9684966,0,0,0.9684966,271.44593,612.13021)"
       id="g2400">
      <rect
         width="34.014999"
         height="21.552"
         x="0.0049999999"
         y="12.362"
         id="rect2384"
         style="fill:#00b259" />
      <rect
         width="34.015999"
         height="8.2410002"
         x="0.0040000002"
         y="0"
         id="rect2386"
         style="fill:#ffdd00" />
      <path
         d="M 87.504,14.09 L 87.974,12.444 L 76.434,12.444 L 75.514,15.74 L 79.214,15.74 L 76.574,24.995 L 80.684,24.995 L 83.324,15.74 L 87.024,15.74 L 87.504,14.09 M 95.134,17.861 C 96.194,17.792 96.844,17.454 97.074,16.664 C 97.324,15.784 96.734,15.355 95.784,15.355 L 93.864,15.355 L 93.144,17.861 L 94.774,17.861 C 94.904,17.861 95.024,17.861 95.134,17.861 z M 95.134,23.03 C 95.154,22.963 95.174,22.894 95.194,22.805 C 95.494,21.811 95.564,21.223 95.134,20.909 C 94.863,20.705 94.384,20.615 93.613,20.615 L 92.373,20.615 L 91.153,24.994 L 87.023,24.994 L 87.503,23.347 L 90.593,12.444 L 96.513,12.444 C 100.703,12.444 101.743,13.573 101.063,16.01 C 100.633,17.454 99.673,18.673 98.093,19.08 C 99.263,19.577 99.983,19.892 99.263,22.421 C 98.783,24.068 98.583,24.61 99.083,24.61 L 98.963,24.994 L 94.793,24.994 C 94.774,24.745 94.884,24.024 95.134,23.03 z M 109.604,12.308 C 110.214,12.172 110.844,12.105 111.474,12.105 C 115.964,12.105 117.164,15.333 116.214,18.652 C 115.204,22.196 112.584,24.454 109.604,25.13 C 108.994,25.266 108.364,25.334 107.704,25.334 C 103.774,25.334 101.834,22.896 103.034,18.606 C 103.984,15.311 106.514,12.985 109.604,12.308 z M 109.604,22.082 C 110.824,21.608 111.634,20.298 112.084,18.651 C 112.584,16.935 112.404,15.13 110.574,15.173 C 110.214,15.173 109.894,15.241 109.604,15.355 C 108.314,15.874 107.524,17.365 107.164,18.651 C 106.684,20.254 106.624,22.262 108.584,22.262 C 108.944,22.263 109.284,22.195 109.604,22.082 z M 124.324,19.758 C 125.604,19.758 126.554,19.825 126.244,20.909 C 125.994,21.811 125.244,22.037 124.324,22.06 C 124.254,22.06 124.184,22.06 124.114,22.06 L 122.334,22.06 L 122.984,19.757 L 124.294,19.757 C 124.294,19.758 124.294,19.758 124.324,19.758 z M 124.324,15.355 L 125.675,15.355 C 126.555,15.355 127.345,15.377 127.074,16.37 C 126.874,17.094 126.175,17.454 125.334,17.454 L 123.644,17.454 L 124.234,15.355 L 124.324,15.355 z M 124.324,24.972 C 127.164,24.815 129.264,23.797 129.984,21.224 C 130.374,19.849 129.984,18.673 128.724,18.334 C 129.674,17.838 130.774,16.89 131.134,15.604 C 131.834,13.097 129.784,12.444 126.964,12.444 L 120.934,12.444 L 117.364,24.995 L 123.504,24.995 C 123.784,24.994 124.054,24.994 124.324,24.972 z M 139.924,17.861 C 140.984,17.792 141.634,17.454 141.863,16.664 C 142.103,15.784 141.523,15.355 140.573,15.355 L 138.653,15.355 L 137.933,17.861 L 139.553,17.861 C 139.694,17.861 139.804,17.861 139.924,17.861 z M 145.764,16.258 C 145.814,16.168 145.834,16.099 145.854,16.01 C 146.124,15.062 146.124,14.294 145.764,13.73 C 145.224,12.849 143.844,12.444 141.294,12.444 L 135.354,12.444 L 131.794,24.995 L 135.904,24.995 L 137.164,20.616 L 138.404,20.616 C 139.175,20.616 139.644,20.706 139.925,20.91 C 140.355,21.224 140.285,21.812 139.985,22.806 C 139.965,22.895 139.945,22.963 139.925,23.031 C 139.645,24.025 139.555,24.746 139.585,24.995 L 143.755,24.995 L 143.845,24.611 C 143.375,24.611 143.574,24.069 144.055,22.422 C 144.775,19.893 144.055,19.578 142.875,19.081 C 144.364,18.695 145.334,17.59 145.764,16.258 z M 174.164,16.078 C 174.484,13.888 173.394,12.104 169.924,12.104 C 166.764,12.104 164.073,13.435 163.334,16.122 C 161.954,20.909 169.564,19.599 169.014,21.518 C 168.854,22.105 168.074,22.443 167.054,22.443 C 166.644,22.443 166.244,22.331 165.974,22.127 C 165.674,21.901 165.524,21.585 165.564,21.134 L 161.614,21.134 C 161.074,23.392 162.675,25.333 165.994,25.333 C 169.444,25.333 172.294,23.911 173.104,20.999 C 174.414,16.437 166.854,17.59 167.394,15.716 C 167.504,15.265 167.984,14.994 168.904,14.994 C 169.284,14.994 169.654,15.061 169.894,15.22 C 170.144,15.378 170.304,15.648 170.234,16.078 L 174.164,16.078 L 174.164,16.078 z M 153.334,12.849 L 153.604,12.444 L 157.794,12.444 L 158.724,24.995 L 154.614,24.995 L 154.614,23.348 L 150.504,23.348 L 149.564,24.995 L 145.514,24.995 L 145.764,24.611 L 153.334,12.849 z M 153.334,20.728 L 154.634,20.728 L 154.594,16.213 L 153.334,18.426 L 152.044,20.728 L 153.334,20.728 z M 54.049,15.355 L 52.919,15.355 L 52.149,18.148 L 54.046,18.155 L 54.046,18.153 C 54.903,18.109 55.627,17.702 55.92,16.687 C 56.235,15.512 54.972,15.355 54.092,15.355 L 54.049,15.355 z M 54.049,21.066 L 54.049,21.066 C 53.823,21.089 53.597,21.089 53.371,21.089 L 51.293,21.089 L 50.187,24.993 L 46.057,24.993 L 49.646,12.442 L 55.695,12.442 C 59.307,12.442 60.57,14.088 59.848,16.663 C 59.125,19.215 57.252,20.863 54.049,21.066 z M 70.525,24.994 L 60.027,24.994 L 63.595,12.443 L 73.844,12.443 L 73.009,15.355 L 66.89,15.355 L 66.371,17.161 L 71.564,17.161 L 70.728,20.097 L 65.536,20.097 L 64.971,22.061 L 71.361,22.061 L 70.525,24.994 z"
         id="path2388"
         style="fill:#0063a5;fill-rule:evenodd" />
      <path
         d="M 9.448,14.874 L 12.283,14.874 C 12.847,14.874 13.357,15.236 13.357,15.832 C 13.357,16.636 12.717,17.197 11.828,17.197 L 8.793,17.197 L 9.448,14.874 M 8.107,19.611 L 10.559,19.611 C 11.76,19.611 11.828,19.937 11.992,20.215 C 12.157,20.493 12.082,21.078 11.968,21.281 C 11.824,21.535 11.582,22.321 10.047,22.321 L 7.322,22.321 C 7.322,22.322 8.105,19.615 8.107,19.611 z M 23.399,14.89 L 26.078,14.89 C 27.349,14.89 27.398,15.752 27.398,15.998 C 27.398,16.572 26.894,17.7 25.352,17.7 L 22.622,17.7 C 22.622,17.7 23.385,14.959 23.399,14.89 z M 34.021,12.36 L 34.021,8.236 L 0,8.236 L 0,12.36 L 6.546,12.36 L 2.919,24.908 L 10.344,24.908 C 13.561,24.908 14.121,24.157 14.773,23.608 C 15.645,22.876 16.113,21.137 15.721,19.926 C 15.444,19.07 14.635,18.551 14.546,18.527 C 15.551,18.059 16.136,17.038 16.208,16.887 C 16.58,16.112 16.87,14.707 15.942,13.576 C 15.172,12.638 13.674,12.378 12.588,12.359 L 20.537,12.359 L 16.896,24.932 L 20.58,24.932 L 21.927,20.163 L 24.031,20.163 C 25.561,20.163 25.422,21.116 25.459,21.526 L 25.58,25.031 L 29,25.032 C 29,25.032 28.846,21.098 28.832,20.81 C 28.787,19.799 28.117,19.344 27.547,19.344 C 28.643,19.048 29.594,18.053 29.975,17.414 C 30.412,16.68 30.743,15.51 30.309,14.347 C 29.68,12.66 28.057,12.38 26.923,12.36 L 34.021,12.36 L 34.021,12.36 z"
         id="path2390"
         style="fill:#ffffff;fill-rule:evenodd" />
    </g>
  </g>
</svg>
